<svg xmlns="http://www.w3.org/2000/svg" width="160" height="100" viewBox="0 0 160 100">
  <rect width="160" height="100" fill="#FFFFFF" rx="4"/>
  <!-- Title bar -->
  <rect x="0" y="0" width="160" height="14" fill="#F9FAFB" rx="4"/>
  <rect x="0" y="8" width="160" height="6" fill="#F9FAFB"/>
  <text x="80" y="10" font-family="Inter, sans-serif" font-size="7" fill="#1F2937" text-anchor="middle" font-weight="700">Comparison</text>
  <!-- Left column -->
  <rect x="8" y="18" width="62" height="74" fill="#EFF6FF" stroke="#3B82F6" stroke-width="1.5" rx="2"/>
  <rect x="8" y="18" width="62" height="16" fill="#DBEAFE" stroke="#3B82F6" stroke-width="1.5" rx="2"/>
  <rect x="8" y="28" width="62" height="6" fill="#DBEAFE"/>
  <text x="39" y="29" font-family="Inter, sans-serif" font-size="6" fill="#1D4ED8" text-anchor="middle" font-weight="700">Topic A</text>
  <!-- Left bullets -->
  <circle cx="16" cy="44" r="2" fill="#3B82F6"/>
  <line x1="21" y1="44" x2="64" y2="44" stroke="#BFDBFE" stroke-width="1"/>
  <text x="21" y="46.5" font-family="Inter, sans-serif" font-size="5" fill="#374151">Point 1</text>
  <circle cx="16" cy="55" r="2" fill="#3B82F6"/>
  <line x1="21" y1="55" x2="64" y2="55" stroke="#BFDBFE" stroke-width="1"/>
  <text x="21" y="57.5" font-family="Inter, sans-serif" font-size="5" fill="#374151">Point 2</text>
  <circle cx="16" cy="66" r="2" fill="#3B82F6"/>
  <line x1="21" y1="66" x2="64" y2="66" stroke="#BFDBFE" stroke-width="1"/>
  <text x="21" y="68.5" font-family="Inter, sans-serif" font-size="5" fill="#374151">Point 3</text>
  <!-- Right column -->
  <rect x="90" y="18" width="62" height="74" fill="#F0FDF4" stroke="#10B981" stroke-width="1.5" rx="2"/>
  <rect x="90" y="18" width="62" height="16" fill="#D1FAE5" stroke="#10B981" stroke-width="1.5" rx="2"/>
  <rect x="90" y="28" width="62" height="6" fill="#D1FAE5"/>
  <text x="121" y="29" font-family="Inter, sans-serif" font-size="6" fill="#065F46" text-anchor="middle" font-weight="700">Topic B</text>
  <!-- Right bullets -->
  <circle cx="98" cy="44" r="2" fill="#10B981"/>
  <line x1="103" y1="44" x2="146" y2="44" stroke="#A7F3D0" stroke-width="1"/>
  <text x="103" y="46.5" font-family="Inter, sans-serif" font-size="5" fill="#374151">Point 1</text>
  <circle cx="98" cy="55" r="2" fill="#10B981"/>
  <line x1="103" y1="55" x2="146" y2="55" stroke="#A7F3D0" stroke-width="1"/>
  <text x="103" y="57.5" font-family="Inter, sans-serif" font-size="5" fill="#374151">Point 2</text>
  <circle cx="98" cy="66" r="2" fill="#10B981"/>
  <line x1="103" y1="66" x2="146" y2="66" stroke="#A7F3D0" stroke-width="1"/>
  <text x="103" y="68.5" font-family="Inter, sans-serif" font-size="5" fill="#374151">Point 3</text>
  <!-- VS badge -->
  <rect x="67" y="47" width="26" height="16" rx="5" fill="#F3E8FF" stroke="#7C3AED" stroke-width="1.5"/>
  <text x="80" y="58" font-family="Inter, sans-serif" font-size="7.5" fill="#7C3AED" text-anchor="middle" font-weight="800">VS</text>
</svg>
